<svg xmlns="http://www.w3.org/2000/svg" viewBox="0 0 5768.000000 2568.000000" width="721" height="321" aria-hidden="true"><g transform="translate(0.000000,2568.000000) scale(0.100000,-0.100000)" fill="currentColor" stroke="none"><path d="M27123 25649 c-3 -18 -17 -37 -32 -46 -41 -26 -51 -44 -51 -90 0 -32
-6 -48 -22 -61 -60 -48 -61 -51 -55 -120 5 -63 -6 -122 -23 -122 -5 0 -46 -38
-92 -84 l-83 -84 -125 -4 -125 -3 -97 -99 c-89 -89 -98 -102 -98 -136 0 -33 8
-46 58 -96 l57 -59 173 -5 c183 -5 191 -8 192 -55 3 -133 -1 -385 -6 -398 -3
-9 -10 -17 -14 -17 -5 0 -46 -38 -92 -84 l-83 -84 -85 -4 -85 -3 -115 -117
-115 -117 -167 -3 -168 -3 -30 -37 -30 -37 -168 -3 -167 -3 -97 -99 c-94 -94
-98 -100 -98 -142 0 -33 -5 -49 -22 -62 -52 -42 -58 -52 -58 -97 0 -34 -5 -49
-22 -63 -52 -42 -58 -52 -58 -97 0 -34 -5 -49 -22 -63 -60 -48 -61 -51 -55
-120 6 -79 -4 -113 -43 -136 -35 -20 -45 -50 -37 -117 8 -62 -6 -100 -43 -123
-35 -20 -45 -50 -37 -117 8 -62 -6 -100 -43 -123 -35 -20 -45 -50 -37 -117 4
-28 2 -60 -2 -72 -10 -26 -106 -127 -121 -127 -6 0 -28 18 -50 40 l-39 40
-880 0 -880 0 -30 38 -31 37 -216 5 c-176 4 -216 8 -224 20 -11 17 -12 22 -10
157 1 109 2 106 -58 155 -17 13 -22 29 -22 62 0 40 -5 49 -57 102 l-58 59
-247 3 -247 3 -31 37 -30 37 -90 3 c-89 4 -90 4 -119 39 -24 29 -37 36 -78 40
-44 5 -54 12 -117 75 -38 38 -80 74 -93 79 -27 10 -222 12 -247 3 -10 -4 -16
-18 -16 -35 0 -30 4 -32 85 -43 29 -4 48 -14 67 -37 22 -26 36 -33 78 -37 39
-3 55 -10 70 -30 26 -32 25 -72 -1 -106 l-20 -26 -369 0 -369 0 -20 26 c-26
34 -27 74 -1 106 15 20 31 27 70 30 42 4 56 11 78 37 19 23 38 33 67 37 81 11
85 13 85 43 0 17 -6 31 -16 35 -24 9 -220 7 -246 -3 -23 -8 -185 -165 -214
-205 -9 -13 -32 -22 -70 -27 -48 -6 -61 -13 -86 -43 l-29 -35 -367 -3 -367 -3
-58 -59 -58 -59 1 -236 c1 -224 -2 -271 -20 -271 -4 0 -19 -11 -34 -25 -21
-19 -26 -33 -26 -69 0 -59 -18 -76 -79 -76 -88 0 -81 -85 -81 957 l0 921 -57
58 -58 59 -167 0 -168 0 -30 -37 -30 -37 -170 -3 -170 -3 -30 -37 -30 -36
-130 -4 -130 -3 -30 -37 -30 -37 -170 -3 -170 -3 -30 -37 -31 -37 -289 -3
-290 -3 -31 -37 -30 -38 -769 0 -769 0 -30 38 -31 37 -290 3 -289 3 -31 37
-30 37 -170 3 -170 3 -30 37 -30 37 -130 3 -130 4 -30 36 -30 37 -130 3 -130
4 -30 36 -30 37 -168 0 -167 0 -58 -59 -57 -59 0 -477 c0 -262 -2 -484 -6
-493 -3 -9 -10 -17 -14 -17 -5 0 -46 -38 -92 -85 l-84 -85 -684 -2 -685 -3
-59 -60 -58 -60 5 -64 c5 -63 -6 -121 -24 -121 -4 0 -27 -19 -49 -42 l-40 -42
-370 -1 -369 0 -36 35 -36 35 -839 0 -839 0 -36 -35 -36 -35 -210 -5 c-195 -5
-212 -7 -225 -25 -12 -16 -14 -108 -14 -575 0 -306 -2 -563 -5 -571 -3 -8 -19
-23 -35 -33 -35 -20 -45 -50 -37 -117 6 -48 -7 -109 -23 -109 -5 0 -46 -38
-92 -84 l-83 -84 -128 -4 c-156 -4 -157 -4 -157 -119 l0 -78 66 -65 c37 -36
70 -66 74 -66 17 0 21 -40 21 -190 0 -150 -4 -190 -21 -190 -4 0 -37 -30 -74
-66 -62 -61 -66 -68 -66 -110 0 -33 -5 -49 -22 -62 -57 -46 -58 -48 -58 -130
0 -123 -17 -116 285 -122 213 -4 257 -8 265 -20 5 -8 10 -54 10 -103 0 -76 -3
-89 -21 -105 -11 -9 -163 -159 -337 -333 -309 -308 -318 -316 -362 -321 -44
-5 -53 -13 -480 -440 -427 -427 -436 -435 -480 -440 -44 -5 -53 -13 -440 -400
-387 -387 -396 -395 -440 -400 -44 -5 -53 -13 -480 -440 -427 -427 -436 -435
-480 -440 -44 -5 -53 -13 -440 -400 -387 -387 -396 -395 -440 -400 -44 -5 -53
-13 -401 -361 -330 -331 -359 -357 -390 -357 -52 0 -76 -22 -84 -77 -8 -59
-26 -80 -75 -88 -79 -13 -103 31 -50 92 25 28 28 38 20 53 -18 33 -108 23
-132 -14 -4 -6 -8 -48 -8 -94 0 -71 -3 -84 -21 -100 -12 -9 -48 -43 -80 -75
l-59 -59 0 -357 c0 -293 3 -361 14 -377 14 -19 41 -19 1385 -22 l1370 -2 31
-38 30 -37 210 -3 209 -3 31 -37 30 -37 127 -3 128 -4 42 -39 c57 -52 89 -52
147 1 l43 40 446 0 446 0 30 -37 31 -38 330 -3 329 -3 31 -37 30 -37 130 -3
130 -4 30 -36 30 -37 130 -3 130 -4 30 -36 30 -37 130 -3 130 -4 29 -35 c25
-31 37 -37 81 -41 43 -4 55 -10 81 -41 29 -36 30 -36 119 -39 89 -4 90 -4 119
-39 25 -31 37 -37 81 -41 43 -4 55 -10 80 -40 24 -29 36 -36 80 -40 43 -4 55
-10 80 -40 24 -29 36 -36 80 -40 43 -4 55 -10 80 -40 24 -29 36 -36 80 -40 43
-4 55 -10 80 -40 24 -29 36 -36 80 -40 43 -4 55 -10 79 -39 24 -29 37 -36 78
-40 44 -5 54 -11 122 -80 67 -69 78 -76 120 -80 42 -5 53 -12 120 -80 67 -69
78 -76 120 -81 43 -4 53 -11 160 -120 107 -107 117 -115 160 -120 45 -5 52
-11 443 -401 218 -218 406 -404 417 -413 16 -13 21 -29 21 -62 0 -43 2 -46
139 -182 77 -77 149 -147 160 -156 16 -13 21 -29 21 -62 0 -41 5 -49 59 -103
32 -32 68 -66 80 -75 16 -13 21 -29 21 -62 0 -41 5 -49 59 -103 32 -32 68 -66
80 -75 16 -13 21 -29 21 -63 0 -45 6 -55 58 -97 17 -14 22 -29 22 -63 0 -45 6
-55 58 -97 17 -14 22 -29 22 -63 0 -45 6 -55 58 -97 17 -14 22 -29 22 -63 0
-45 6 -55 58 -97 17 -14 22 -29 22 -63 0 -37 5 -51 26 -70 15 -14 30 -25 34
-25 17 0 28 -60 23 -122 -6 -69 -5 -72 55 -120 17 -14 22 -29 22 -63 0 -37 5
-51 26 -70 15 -14 30 -25 34 -25 16 0 29 -62 23 -109 -8 -67 2 -97 37 -117 16
-10 32 -25 36 -33 3 -9 5 -69 4 -134 -1 -115 0 -118 26 -142 15 -14 30 -25 34
-25 16 0 22 -40 20 -153 -1 -115 0 -118 26 -142 15 -14 30 -25 34 -25 17 0 21
-42 20 -193 l-1 -157 27 -25 c15 -14 30 -25 34 -25 18 0 21 -55 20 -430 0
-329 2 -399 14 -415 14 -20 48 -20 3744 -23 l3731 -2 30 -38 31 -37 210 0 210
0 30 37 31 37 369 3 370 3 30 37 30 36 128 4 127 3 58 59 c52 53 57 62 57 102
0 33 5 49 22 62 52 42 58 52 58 97 0 34 5 49 22 63 52 42 58 52 58 97 0 34 5
50 21 63 12 9 48 43 80 75 54 54 59 62 59 103 0 33 5 49 22 62 52 42 58 52 58
97 0 34 5 50 21 63 12 9 66 61 120 115 96 95 99 101 99 143 0 33 5 49 21 62
11 9 199 195 417 413 391 390 398 396 443 401 43 5 53 13 160 120 109 110 116
116 162 121 41 4 54 11 78 40 24 29 36 35 77 39 46 4 54 10 123 80 68 70 78
76 122 81 41 4 54 11 78 40 24 29 36 35 79 39 44 4 56 10 81 41 29 35 30 35
119 39 89 3 90 3 119 39 26 31 38 37 81 41 44 4 56 10 81 41 29 35 30 35 119
39 90 3 90 3 120 40 l30 36 130 4 130 3 30 37 31 37 209 3 210 3 31 38 30 37
609 0 609 0 30 -37 31 -38 207 -3 207 -3 43 -40 c57 -52 92 -53 142 -2 28 29
47 38 87 44 49 7 56 12 165 122 106 107 117 115 159 119 43 5 53 13 183 143
134 135 137 138 137 181 0 33 6 49 21 62 11 9 83 79 160 156 137 136 139 139
139 182 0 33 5 49 21 62 12 9 48 43 80 75 54 54 59 62 59 103 0 33 5 49 22 62
52 42 58 52 58 97 0 34 5 49 22 63 52 42 58 52 58 97 0 34 5 49 22 63 52 42
58 52 58 97 0 34 5 49 22 63 52 42 58 52 58 97 0 34 5 49 22 63 60 48 61 51
55 120 -5 62 6 122 23 122 4 0 19 11 34 25 21 19 26 33 26 70 0 34 5 49 22 63
52 42 58 52 58 97 0 34 5 49 22 63 60 48 61 51 55 120 -5 62 6 122 23 122 4 0
19 11 34 25 21 19 26 33 26 70 0 34 5 49 22 63 52 42 58 52 58 97 0 34 5 49
22 63 52 42 58 52 58 97 0 34 5 49 22 63 60 48 61 51 55 120 -5 62 6 122 23
122 4 0 19 11 34 25 21 19 26 33 26 70 0 34 5 49 22 63 52 42 58 52 58 97 0
34 5 49 22 63 52 42 58 52 58 97 0 34 5 49 22 63 52 42 58 52 58 97 0 34 5 49
22 63 52 42 58 52 58 97 0 34 5 49 22 63 52 42 58 52 58 97 0 34 5 50 21 63
12 9 48 43 80 75 54 54 59 62 59 103 0 33 5 49 22 62 52 42 58 52 58 97 0 34
5 49 22 63 52 42 58 52 58 97 0 34 5 50 21 63 12 9 48 43 80 75 54 54 59 62
59 103 0 33 5 49 21 62 12 9 48 43 80 75 54 54 59 62 59 103 0 33 5 49 21 62
12 9 48 43 80 75 54 54 59 62 59 103 0 32 6 49 20 62 11 9 29 25 40 35 14 11
20 30 20 56 0 37 -10 49 -337 377 l-338 339 -117 3 -117 4 -40 -41 c-22 -23
-45 -41 -51 -41 -6 0 -28 18 -50 40 -32 32 -46 40 -76 40 -35 0 -47 10 -155
118 -64 64 -126 125 -138 134 -16 13 -21 29 -21 62 0 41 -5 49 -59 103 -32 32
-68 66 -80 75 -16 13 -21 29 -21 62 0 41 -5 49 -59 103 -32 32 -68 66 -80 75
-16 13 -21 29 -21 62 0 41 -5 49 -59 103 -32 32 -68 66 -80 75 -16 13 -21 29
-21 63 0 37 -5 51 -26 70 -15 14 -30 25 -34 25 -17 0 -28 60 -23 122 6 69 5
72 -55 120 -17 14 -22 29 -22 63 0 37 -5 51 -26 70 -15 14 -30 25 -34 25 -17
0 -28 60 -23 122 6 69 5 72 -55 120 -17 14 -22 29 -22 63 0 45 -6 55 -58 97
-17 14 -22 29 -22 63 0 45 -6 55 -58 97 -17 14 -22 29 -22 63 0 45 -6 55 -58
97 -17 14 -22 29 -22 63 0 45 -6 55 -58 97 -17 13 -22 29 -22 62 0 43 -3 47
-106 150 -59 58 -110 106 -114 106 -18 0 -21 54 -20 434 0 454 -3 436 78 436
43 0 49 -4 120 -76 68 -70 79 -77 121 -82 42 -4 53 -11 120 -79 67 -69 78 -76
120 -80 42 -5 53 -12 120 -81 69 -70 77 -76 123 -80 41 -4 53 -10 77 -39 24
-29 37 -36 78 -40 44 -5 54 -11 122 -81 69 -70 77 -76 123 -80 40 -4 53 -10
77 -39 24 -29 37 -36 86 -42 31 -4 60 -13 63 -18 4 -6 32 -38 62 -72 87 -97
120 -80 105 55 l-7 65 41 37 c43 39 53 75 25 86 -9 3 -35 6 -58 6 -37 0 -47 5
-79 40 -31 35 -41 40 -79 40 -40 1 -48 6 -117 74 -64 65 -79 75 -120 81 -33 5
-56 16 -81 40 -24 23 -49 35 -80 40 -48 8 -128 70 -162 126 -15 25 -24 29 -62
29 -59 0 -74 7 -92 41 -8 16 -30 36 -50 44 -31 13 -35 18 -32 47 2 27 8 34 30
36 20 2 32 -5 53 -32 24 -31 33 -36 69 -36 46 0 63 -10 89 -51 13 -22 26 -28
70 -33 44 -6 61 -14 87 -41 24 -25 44 -35 80 -40 36 -5 56 -15 80 -40 24 -25
44 -35 80 -40 39 -5 55 -14 83 -46 30 -33 41 -39 77 -39 34 0 46 -6 74 -36 24
-26 39 -35 57 -32 24 3 24 4 27 135 2 122 1 134 -18 153 -14 14 -33 20 -64 20
-39 0 -48 5 -75 36 -25 32 -37 37 -81 42 -43 4 -55 10 -79 39 -24 29 -37 36
-78 40 -44 5 -54 11 -122 81 -69 70 -77 76 -123 80 -41 4 -53 10 -78 40 -24
29 -36 36 -80 40 -43 4 -55 10 -80 40 -24 29 -36 36 -80 40 -43 4 -55 10 -80
40 -24 29 -36 36 -80 40 -43 4 -55 10 -80 40 -24 29 -36 36 -80 40 -43 4 -55
10 -79 39 -24 29 -37 36 -78 40 -40 5 -55 12 -91 49 -23 24 -47 44 -51 44 -18
0 -29 58 -24 122 6 69 5 72 -55 120 -17 13 -22 29 -22 62 0 40 -5 49 -57 102
l-58 59 -247 3 -247 3 -31 37 -30 37 -90 3 c-90 4 -90 4 -120 40 -30 37 -31
37 -120 40 -89 4 -91 4 -119 39 -24 29 -37 36 -86 42 -65 9 -75 19 -75 79 0
42 -16 67 -56 90 -16 9 -20 28 -26 139 -5 103 -4 132 8 151 22 34 43 27 101
-35 47 -51 53 -63 53 -100 0 -58 25 -83 84 -83 39 0 48 -4 75 -37 l31 -38 370
0 370 0 30 37 c30 36 30 36 120 40 89 3 90 3 119 39 26 31 38 37 81 41 44 4
56 10 81 41 29 35 30 35 119 39 89 3 90 3 119 39 26 31 38 37 81 41 44 4 56
10 81 41 l30 36 289 3 290 3 31 38 c27 33 36 37 75 37 60 0 84 25 84 85 0 34
5 49 22 63 60 49 59 43 57 178 -1 139 4 154 57 154 50 0 74 13 131 69 59 58
73 99 49 136 -23 35 -49 31 -83 -11 l-29 -36 -88 -2 -88 -1 -30 -37 c-27 -34
-34 -38 -78 -38 -44 0 -51 4 -78 38 l-30 37 -211 0 -211 0 -29 -36 c-26 -31
-38 -37 -81 -41 -44 -4 -56 -10 -81 -41 l-30 -36 -249 -3 -250 -3 -31 -37 -30
-38 -248 0 -248 0 -35 38 c-19 20 -44 45 -56 54 -17 14 -22 29 -22 63 0 45 -6
55 -58 97 -17 14 -22 29 -22 63 0 45 -6 55 -58 97 -17 13 -22 29 -22 62 0 41
-5 49 -59 103 -32 32 -68 66 -80 75 -16 13 -21 29 -21 63 0 45 -6 55 -58 97
-17 14 -22 29 -22 62 0 44 -3 48 -97 142 -78 78 -103 97 -132 101 -73 9 -79
12 -91 47 -6 19 -8 45 -5 57 7 28 107 139 125 139 7 0 37 -28 68 -61 32 -34
100 -105 152 -158 l95 -96 88 0 c103 0 117 10 117 82 0 32 6 48 22 61 61 50
59 40 58 210 -1 86 1 164 5 173 3 8 19 23 35 33 35 20 45 50 37 117 -6 47 7
109 23 109 4 0 19 11 34 25 25 23 26 27 26 145 0 128 1 124 -58 172 -20 16
-22 28 -22 105 0 49 5 95 10 103 8 13 61 16 345 20 319 5 337 6 351 24 18 25
18 87 0 112 -12 16 -29 20 -105 22 -91 4 -91 4 -121 40 l-30 37 -128 3 -127 4
-83 84 c-46 46 -87 84 -92 84 -16 0 -22 38 -20 152 1 126 2 121 -58 170 -17
14 -22 29 -22 64 0 43 -4 49 -57 100 l-58 54 -135 2 c-321 5 -289 0 -307 48
l-16 40 -269 0 -268 0 -7 -31z m-16016 -3507 c32 -32 -3 -72 -63 -72 -34 0
-51 -7 -84 -35 l-42 -35 -1119 0 c-1313 0 -1161 19 -1159 -143 2 -134 1 -140
-9 -156 -5 -8 -35 -18 -66 -22 -49 -7 -62 -13 -87 -43 l-29 -36 -129 0 c-170
0 -160 -16 -160 243 l0 198 48 51 c26 28 56 54 67 59 11 5 648 8 1419 6 1144
-2 1402 -4 1413 -15z m11852 -259 l31 -38 176 -5 c183 -5 193 -8 194 -52 1
-20 1 -267 0 -297 0 -11 -7 -27 -16 -35 -13 -14 -61 -16 -372 -16 -267 0 -363
3 -382 13 -21 10 -26 22 -30 66 -4 37 -12 57 -25 67 -43 31 -55 45 -55 64 -1
11 -1 61 -1 110 0 50 0 99 1 109 1 47 18 51 240 51 l209 0 30 -37z m76 -554
c36 -43 57 -49 174 -49 60 0 116 -3 125 -6 45 -17 39 -138 -8 -150 -12 -3
-129 -4 -260 -2 l-238 3 -22 26 c-35 41 -58 49 -140 49 -69 0 -76 2 -95 26
-26 33 -27 75 -3 103 15 18 30 21 117 24 55 2 151 3 213 3 110 -1 115 -2 137
-27z m-161 -320 c40 -46 54 -49 260 -49 154 0 197 -3 209 -14 22 -22 31 -174
12 -203 -22 -34 -49 -28 -85 17 l-32 40 -322 0 c-314 0 -323 1 -342 21 -11 13
-19 35 -19 59 0 33 8 46 60 100 l60 61 88 -3 c82 -3 91 -5 111 -29z m-331
-3427 c15 -16 17 -57 17 -338 1 -303 -2 -354 -20 -354 -4 0 -19 -11 -34 -25
l-26 -24 0 -1359 c0 -748 -3 -1367 -6 -1376 -3 -9 -10 -16 -14 -16 -4 0 -19
-11 -34 -25 -20 -19 -26 -34 -26 -67 0 -24 -4 -49 -9 -57 -5 -8 -35 -18 -66
-22 -49 -6 -62 -13 -86 -42 -24 -29 -36 -35 -79 -39 -44 -4 -56 -10 -81 -41
-29 -35 -30 -35 -119 -39 -89 -3 -90 -3 -120 -40 -30 -36 -30 -36 -120 -40
-89 -3 -90 -3 -120 -40 -30 -36 -30 -36 -120 -40 -89 -3 -90 -3 -120 -40 -30
-36 -30 -36 -120 -40 -89 -3 -90 -3 -120 -40 -30 -36 -30 -36 -120 -40 l-90
-3 -31 -37 -30 -38 -89 0 c-95 0 -120 11 -120 53 -2 1539 2 3669 6 3681 3 9
10 16 14 16 4 0 19 11 34 25 26 24 27 28 26 128 -2 144 -2 144 16 161 12 13
40 16 144 16 l129 0 30 -37 31 -38 410 0 410 0 30 37 c30 36 30 36 120 40 89
3 90 3 120 40 30 36 30 36 121 40 l91 3 30 38 c27 33 35 37 77 37 33 0 53 -5
64 -18z m-11106 -98 c25 -32 36 -37 81 -42 45 -4 57 -10 83 -41 l29 -36 327
-3 327 -3 84 -84 c46 -47 87 -85 92 -85 4 0 11 -7 14 -16 3 -9 6 -682 6 -1496
l0 -1479 26 -24 c15 -14 30 -25 34 -25 4 0 11 -8 14 -17 5 -13 9 -229 6 -399
0 -21 -101 -134 -120 -134 -6 0 -28 18 -50 40 -33 33 -46 40 -79 40 -34 0 -44
6 -70 38 l-31 37 -90 3 c-90 4 -90 4 -120 40 -30 37 -31 37 -120 40 -90 4 -90
4 -120 40 -30 37 -31 37 -120 40 -89 4 -90 4 -119 39 -24 29 -37 36 -78 40
-40 5 -55 12 -91 49 -23 24 -47 44 -51 44 -5 0 -12 7 -15 16 -3 9 -6 773 -6
1697 0 1896 -8 1717 81 1717 42 0 50 -4 76 -36z m4414 -4 l37 -40 120 0 121 0
30 -37 31 -38 610 0 610 0 31 38 30 37 161 0 160 0 37 40 c38 42 61 49 80 26
9 -11 12 -367 11 -1443 0 -785 0 -1438 0 -1450 0 -56 61 -53 -1080 -53 -1141
0 -1080 -3 -1080 53 0 12 0 665 0 1450 -1 1076 2 1432 11 1443 19 23 42 16 80
-26z m-2243 -965 c23 -25 46 -45 51 -45 5 0 12 -7 15 -16 4 -9 6 -376 6 -815
0 -883 -6 -799 58 -851 12 -10 22 -27 22 -38 1 -11 1 -60 1 -110 0 -49 0 -99
-1 -110 0 -11 -10 -28 -22 -38 -52 -42 -58 -52 -58 -96 0 -77 2 -76 -278 -76
l-247 0 -43 45 c-23 25 -46 45 -51 45 -5 0 -12 7 -15 16 -8 21 -8 2007 0 2028
3 9 10 16 15 16 5 0 28 20 51 45 l43 45 205 0 205 0 43 -45z m6056 -131 c9 -8
16 -25 16 -37 2 -777 -1 -1829 -6 -1841 -6 -16 -18 -21 -88 -30 -29 -4 -47
-14 -68 -41 l-29 -35 -167 0 -167 0 -43 45 c-23 25 -46 45 -51 45 -5 0 -12 7
-15 16 -8 21 -8 1767 0 1788 3 9 10 16 15 16 5 0 28 20 51 45 l43 45 247 0
c211 0 249 -2 262 -16z M40199 14872 c-9 -4 -29 -21 -43 -39 l-27 -32 -131 -3
c-112 -3 -132 -6 -142 -20 -8 -13 -8 -23 0 -35 9 -14 30 -19 101 -23 87 -5 92
-6 132 -43 40 -36 43 -37 120 -37 l80 0 30 -37 31 -38 90 -3 c90 -4 90 -4 120
-40 l30 -37 130 -3 130 -4 30 -36 c30 -37 30 -37 120 -40 90 -4 90 -4 120 -40
30 -37 31 -37 120 -40 90 -4 90 -4 120 -40 l30 -37 130 -3 130 -4 30 -36 30
-37 130 -3 130 -4 30 -36 c30 -37 30 -37 120 -40 90 -4 90 -4 120 -40 l30 -37
130 -3 130 -4 30 -36 30 -37 130 -3 130 -4 30 -36 30 -37 130 -3 130 -4 30
-36 30 -37 130 -3 130 -4 30 -36 30 -37 130 -3 130 -4 30 -36 30 -37 170 -3
170 -3 30 -37 30 -37 130 -3 130 -4 30 -36 30 -37 170 -3 170 -3 30 -37 30
-37 170 -3 170 -3 30 -37 30 -37 170 -3 170 -3 30 -37 30 -37 167 -3 167 -3
43 -40 c23 -21 47 -39 52 -39 5 0 13 -9 16 -21 11 -35 -20 -58 -84 -61 l-56
-3 0 -34 c0 -47 11 -49 242 -42 l193 6 29 36 c25 30 38 37 78 41 45 5 54 11
141 96 50 50 92 96 92 102 0 7 -34 45 -75 85 -70 68 -75 76 -75 116 0 39 5 47
75 114 114 110 105 125 -76 125 l-128 0 -30 38 -31 37 -130 3 -130 4 -30 36
-30 37 -130 3 -130 4 -30 36 -30 37 -130 3 -130 4 -30 36 -30 37 -130 3 -130
4 -30 36 -30 37 -130 3 -130 4 -30 36 -30 37 -130 3 -130 4 -30 36 -30 37
-130 3 -130 4 -30 36 c-30 37 -30 37 -120 40 -90 4 -90 4 -120 40 l-30 37
-130 3 -130 4 -30 36 c-30 37 -30 37 -120 40 -90 4 -90 4 -120 40 l-30 37
-130 3 -130 4 -30 36 c-30 37 -30 37 -120 40 -90 4 -90 4 -120 40 l-30 37
-130 3 -130 4 -30 36 c-30 37 -30 37 -120 40 -90 4 -90 4 -120 40 l-30 37 -90
0 -90 0 -30 -37 -31 -37 -131 -3 c-112 -3 -132 -6 -142 -20 -8 -13 -8 -23 0
-35 9 -14 30 -19 101 -23 87 -5 92 -6 132 -43 l41 -37 119 0 120 0 30 -37 31
-38 90 -3 c90 -4 90 -4 120 -40 30 -37 31 -37 120 -40 90 -4 90 -4 120 -40
l30 -37 130 -3 130 -4 30 -36 c30 -37 30 -37 120 -40 90 -4 90 -4 120 -40 l30
-37 130 -3 130 -4 30 -36 30 -37 130 -3 130 -4 30 -36 c30 -37 30 -37 120 -40
90 -4 90 -4 120 -40 l30 -37 130 -3 130 -4 30 -36 30 -37 130 -3 130 -4 30
-36 30 -37 130 -3 130 -4 30 -36 30 -37 130 -3 130 -4 30 -36 30 -37 170 -3
170 -3 30 -37 30 -37 130 -3 130 -4 30 -36 30 -37 130 -3 c120 -3 131 -5 145
-25 19 -28 19 -87 -1 -115 -12 -17 -25 -22 -61 -22 -40 0 -49 -5 -82 -40 -32
-36 -41 -40 -83 -40 -41 0 -49 4 -76 38 l-30 37 -171 3 -171 3 -30 37 -30 37
-130 3 -130 4 -30 36 -30 37 -170 3 -170 3 -30 37 -30 37 -170 3 -170 3 -30
37 -30 37 -130 3 -130 4 -30 36 -30 37 -130 3 -130 4 -30 36 -30 37 -130 3
-130 4 -30 36 -30 37 -130 3 -130 4 -30 36 -30 37 -130 3 -130 4 -30 36 -30
37 -130 3 -130 4 -30 36 -30 37 -130 3 -130 4 -30 36 c-30 37 -30 37 -120 40
-90 4 -90 4 -120 40 l-30 37 -130 3 -130 4 -30 36 c-30 37 -30 37 -120 40 -90
4 -90 4 -120 40 l-30 37 -130 3 -130 4 -30 36 c-30 37 -30 37 -120 40 -90 4
-90 4 -120 40 -30 37 -31 37 -120 40 -90 4 -90 4 -120 40 l-30 37 -130 3 -130
4 -30 36 c-30 37 -30 37 -120 40 -90 4 -90 4 -120 40 -30 36 -32 37 -108 39
-42 2 -84 -1 -93 -5z M47569 14552 c-8 -4 -39 -27 -67 -51 -53 -45 -68 -83
-36 -95 9 -3 107 -6 219 -6 l203 0 26 -35 c15 -19 34 -35 42 -35 18 0 194 175
194 193 0 35 -20 37 -294 36 -149 0 -278 -3 -287 -7z M47383 14229 c-23 -24
-13 -45 44 -95 l57 -49 199 -3 c208 -3 227 0 227 40 0 23 -87 107 -111 108 -8
0 -28 -13 -44 -30 -49 -51 -117 -48 -162 8 -20 25 -27 27 -110 30 -62 3 -92 0
-100 -9z M46726 12840 c-43 -40 -43 -40 -126 -40 l-82 0 -37 -40 c-32 -35 -42
-40 -81 -40 -39 0 -49 5 -81 40 l-37 40 -124 0 c-183 0 -188 -12 -55 -143 l92
-92 287 0 288 0 31 38 30 37 88 0 c132 0 144 26 51 109 -32 29 -77 71 -99 92
-53 53 -87 53 -145 -1z M45879 12312 c-9 -4 -28 -21 -43 -38 -20 -25 -35 -32
-73 -36 -46 -4 -54 -10 -143 -100 -52 -53 -102 -104 -111 -115 -10 -10 -29
-28 -43 -40 -20 -16 -26 -31 -26 -60 0 -68 15 -78 119 -78 l91 0 31 38 30 37
85 0 c103 0 124 14 124 85 0 33 5 50 21 63 65 55 209 203 209 214 0 32 -24 38
-139 37 -64 0 -123 -3 -132 -7z M31766 8760 l-43 -40 -198 0 -197 0 -37 -40
c-20 -22 -43 -40 -51 -40 -8 0 -31 18 -51 40 l-37 40 -199 0 c-204 0 -223 -3
-223 -40 0 -9 27 -40 61 -68 l61 -52 78 0 79 0 30 -37 31 -38 90 -3 c90 -4 90
-4 120 -40 l30 -37 318 -3 c174 -2 327 0 340 3 39 10 27 44 -40 107 -34 32
-65 58 -68 58 -11 0 -30 49 -30 77 0 17 13 37 40 62 59 54 50 91 -22 91 -31 0
-47 -8 -82 -40z M36244 8524 c-4 -14 -4 -49 0 -78 6 -52 -7 -116 -24 -116 -7
0 -273 -263 -311 -307 -8 -10 -43 -43 -77 -73 -96 -85 -82 -114 50 -109 l83 4
58 59 c32 32 61 66 66 74 5 9 31 18 63 22 52 8 58 12 151 105 92 93 97 99 97
140 0 37 5 46 35 69 19 15 35 33 35 41 0 22 -178 195 -200 195 -13 0 -22 -9
-26 -26z M31923 8200 l-36 -40 -327 0 c-345 0 -350 -1 -350 -47 0 -24 7 -26
85 -37 26 -4 49 -15 67 -35 18 -19 42 -32 66 -36 72 -12 78 -15 92 -41 8 -14
25 -30 38 -35 13 -5 182 -9 376 -9 362 0 376 1 376 40 0 12 -88 101 -129 130
-4 3 -14 14 -22 26 -8 11 -40 44 -72 72 -75 68 -112 71 -164 12z M34807 7583
c-4 -3 -7 -32 -7 -64 0 -51 -3 -60 -27 -77 -55 -39 -123 -108 -123 -124 0 -34
26 -40 152 -36 l123 3 53 51 c28 28 52 56 52 62 0 6 -41 52 -90 102 -82 82
-115 102 -133 83z M31929 7241 l-42 -41 -127 0 c-133 0 -150 -5 -150 -46 0
-33 13 -37 112 -38 84 -1 91 -3 112 -27 13 -15 32 -32 44 -38 22 -11 228 -16
256 -5 28 11 19 51 -18 79 -28 22 -34 33 -38 76 -6 60 -14 69 -66 76 -38 5
-44 2 -83 -36z M31542 6948 c-22 -22 -13 -42 40 -90 55 -50 59 -52 120 -62 21
-4 45 -17 55 -30 23 -29 48 -42 97 -49 25 -4 51 -18 73 -39 l34 -33 280 -3
c289 -3 309 -1 309 37 0 9 -28 41 -62 71 -64 57 -78 72 -102 105 -13 18 -28
20 -140 23 l-125 4 -39 -42 -39 -42 -86 3 c-83 4 -89 5 -118 36 -16 18 -41 35
-54 38 -14 3 -37 8 -52 11 -15 3 -44 21 -65 40 -29 26 -47 34 -76 34 -21 0
-43 -5 -50 -12z M31942 5588 c-23 -23 -12 -43 50 -98 34 -30 69 -64 77 -74 21
-26 109 -109 144 -136 34 -27 34 -53 1 -79 -64 -50 -204 -189 -204 -202 0 -8
5 -20 12 -27 17 -17 2739 -17 2756 0 7 7 12 19 12 27 0 13 -140 152 -204 202
-33 26 -33 52 2 79 34 27 122 110 143 136 8 10 43 44 77 74 62 55 73 75 50 98
-17 17 -2899 17 -2916 0z M43062 5588 c-23 -23 -12 -43 50 -98 34 -30 69 -64
77 -74 9 -11 34 -36 56 -57 34 -32 40 -44 40 -79 0 -35 -6 -47 -40 -79 -22
-21 -47 -46 -56 -57 -8 -10 -43 -44 -77 -74 -62 -55 -73 -75 -50 -98 17 -17
3619 -17 3636 0 7 7 12 19 12 27 0 13 -140 152 -204 202 -37 29 -32 51 17 92
81 68 267 256 267 270 0 33 -27 39 -154 35 l-126 -3 -31 -37 -30 -38 -169 0
-169 0 -30 38 -31 37 -1488 3 c-1153 2 -1491 -1 -1500 -10z M49062 5588 c-7
-7 -12 -19 -12 -27 0 -13 140 -152 204 -202 33 -26 33 -52 -1 -79 -35 -27
-123 -110 -144 -136 -8 -10 -43 -44 -77 -74 -62 -55 -73 -75 -50 -98 17 -17
819 -17 836 0 23 23 12 43 -50 98 -34 30 -69 64 -77 74 -21 26 -109 109 -143
136 -35 27 -35 53 -2 79 64 50 204 189 204 202 0 37 -17 39 -350 39 -240 0
-329 -3 -338 -12z M57378 3659 c-49 -49 -88 -95 -88 -102 0 -23 23 -37 62 -37
32 0 48 9 97 53 72 63 93 112 67 152 -9 14 -24 25 -34 24 -9 0 -56 -41 -104
-90z M31653 2653 c-44 -47 -53 -62 -53 -93 0 -31 9 -46 53 -94 55 -57 91 -71
101 -38 2 9 4 69 4 132 0 63 -2 123 -4 133 -10 33 -47 18 -101 -40z M39210
938 c-11 -12 -20 -25 -20 -29 0 -4 -16 -16 -35 -28 -37 -22 -45 -50 -20 -71
19 -16 49 -5 65 25 7 14 28 34 47 45 34 20 42 47 21 68 -18 18 -35 15 -58 -10z
M55130 938 c-11 -12 -20 -25 -20 -30 0 -4 -13 -14 -28 -22 -15 -8 -34 -26 -42
-40 -7 -14 -28 -35 -47 -46 -35 -21 -43 -49 -18 -70 20 -16 49 -5 66 26 7 14
25 32 39 39 14 7 32 25 40 39 7 14 28 35 47 46 34 20 42 47 21 68 -18 18 -35
15 -58 -10z M53852 868 c-21 -21 -13 -48 21 -68 19 -11 40 -31 47 -45 16 -30
46 -41 65 -25 25 21 17 49 -20 71 -19 12 -35 24 -35 28 0 13 -40 51 -53 51 -7
0 -18 -5 -25 -12z M34646 533 c-3 -10 -5 -70 -5 -134 0 -158 -5 -153 154 -157
179 -5 197 16 94 108 -76 67 -72 63 -139 139 -56 63 -94 78 -104 44z M45618
299 c-49 -49 -88 -95 -88 -102 0 -28 25 -37 107 -37 112 0 123 10 123 119 0
44 -3 86 -6 95 -13 34 -50 13 -136 -75z M46004 205 c-18 -28 -12 -75 14 -98
42 -37 132 -29 132 12 0 24 -89 111 -112 111 -10 0 -25 -11 -34 -25z M47173
94 c-29 -30 -53 -64 -53 -75 0 -17 7 -19 74 -19 82 0 86 3 86 82 0 87 -33 91
-107 12z"/></g></svg>